<svg xmlns="http://www.w3.org/2000/svg" viewBox="-12.8 -25.6 281.6 281.6"><path fill="#22ff88" d="M168.28,85.76c-17.11,4.58-37.245,21.865-37.245,21.865c-1.669,1.433-4.401,1.433-6.07,0c0,0-20.135-17.285-37.245-21.865c-33.85-9.07-67.96-2.164-67.96-2.164c-2.156,0.437-3.867,2.593-3.802,4.792c0,0,2.022,68.331,48.892,82.711c24.98,7.66,59.539-8.8,59.539-8.8c1.986-0.945,5.236-0.945,7.223,0c0,0,34.559,16.46,59.528,8.8c46.88-14.38,48.902-82.711,48.902-82.711c0.064-2.199-1.647-4.355-3.803-4.792C236.239,83.596,202.13,76.69,168.28,85.76zM71.59,140.3c-14.54-6.48-19.505-20.266-19.505-20.266c-0.745-2.07,0.312-4.444,2.348-5.275c0,0,13.567-5.538,28.117,0.942c14.55,6.48,19.507,20.267,19.507,20.267c0.745,2.07-0.313,4.444-2.35,5.275C99.707,141.242,86.14,146.78,71.59,140.3zM184.41,140.3c-14.55,6.48-28.117,0.942-28.117,0.942c-2.037-0.831-3.094-3.205-2.35-5.275c0,0,4.957-13.787,19.507-20.267c14.55-6.48,28.116-0.942,28.116-0.942c2.037,0.831,3.094,3.206,2.35,5.276C203.916,120.034,198.96,133.82,184.41,140.3z"/></svg>
